<svg width="25" height="25" viewBox="0 0 25 25" fill="none" xmlns="http://www.w3.org/2000/svg">
<path fill-rule="evenodd" clip-rule="evenodd" d="M12.3959 24.9124C19.0233 24.9124 24.3959 19.5398 24.3959 12.9124C24.3959 6.28494 19.0233 0.912354 12.3959 0.912354C5.76846 0.912354 0.395874 6.28494 0.395874 12.9124C0.395874 19.5398 5.76846 24.9124 12.3959 24.9124ZM17.603 9.11946C17.9935 8.72894 17.9935 8.09577 17.603 7.70525C17.2125 7.31472 16.5793 7.31472 16.1888 7.70525L12.3959 11.4981L8.60301 7.70529C8.21248 7.31477 7.57932 7.31477 7.1888 7.70529C6.79827 8.09582 6.79827 8.72898 7.1888 9.1195L10.9817 12.9124L7.18877 16.7052C6.79824 17.0958 6.79824 17.7289 7.18877 18.1195C7.57929 18.51 8.21246 18.51 8.60298 18.1195L12.3959 14.3266L16.0216 17.9523C16.4121 18.3429 17.0453 18.3429 17.4358 17.9523C17.8264 17.5618 17.8264 16.9286 17.4358 16.5381L13.8101 12.9124L17.603 9.11946Z" fill="white"/>
</svg>
