<svg width="31" height="31" viewBox="0 0 31 31" fill="none" xmlns="http://www.w3.org/2000/svg">
<circle cx="15.3269" cy="15.8245" r="15.1101" fill="#7965ED"/>
<path d="M22.6823 16.2874C22.6058 15.9224 22.2142 15.6287 21.5045 15.4121C20.9097 15.2311 20.1618 15.1243 19.3374 15.1065L19.2579 11.7301C19.1489 11.3978 18.7573 11.1278 18.0948 10.926C17.4323 10.7243 16.5696 10.6145 15.6597 10.6145C14.7528 10.6145 13.896 10.7243 13.2482 10.926C12.7152 11.0922 12.0763 11.4008 12.0763 11.9319C12.0763 11.9645 12.0792 11.9971 12.0851 12.0298L12.1175 13.3827C11.8996 13.3412 11.6788 13.3204 11.455 13.3204C9.51161 13.3204 7.93042 14.9137 7.93042 16.8719C7.93042 18.833 9.50572 20.4233 11.452 20.4233C12.2618 20.4233 13.048 20.1415 13.6751 19.6282C14.2287 19.7587 14.8794 19.8299 15.5684 19.8359C15.7186 20.6577 17.4882 21.0345 19.1372 21.0345C20.0441 21.0345 20.898 20.9218 21.5516 20.72C22.0905 20.5539 22.7236 20.2423 22.7236 19.7112L22.6823 16.2874ZM13.4131 11.4957C14.0079 11.3118 14.8058 11.2079 15.6538 11.2079C16.493 11.2079 17.3204 11.3118 17.9211 11.4957C18.563 11.6915 18.7014 11.8933 18.7014 11.9348C18.7014 11.9764 18.563 12.1781 17.9211 12.3739C17.3234 12.5549 16.496 12.6617 15.6568 12.6617C14.8441 12.6617 14.0726 12.5668 13.4867 12.3947C12.8536 12.2107 12.674 12.006 12.6593 11.9408C12.6593 11.9378 12.6563 11.9348 12.6534 11.9319C12.6534 11.8695 12.8507 11.6708 13.4131 11.4957ZM18.7485 12.6677V13.4094C18.7161 13.4598 18.7014 13.5162 18.7014 13.5756C18.7014 13.6141 18.563 13.8188 17.924 14.0147C17.3263 14.1986 16.4989 14.3025 15.6597 14.3025C14.9324 14.3025 14.2199 14.2253 13.6545 14.0799C13.6457 14.077 13.6368 14.077 13.631 14.074C13.3542 13.8515 13.0421 13.6735 12.7123 13.5489L12.6917 12.7122C12.8948 12.816 13.1068 12.8991 13.3277 12.9584C13.9666 13.1453 14.794 13.2462 15.6627 13.2462C16.5725 13.2462 17.4352 13.1364 18.0948 12.9347C18.3186 12.8753 18.5394 12.7834 18.7485 12.6677ZM13.4278 19.0585C12.2294 20.1593 10.3714 20.0703 9.28194 18.8627C8.19248 17.6551 8.27787 15.783 9.47628 14.6852C10.0181 14.1897 10.7218 13.9138 11.452 13.9138C11.7465 13.9138 12.038 13.9583 12.3207 14.0443C12.7034 14.163 13.0597 14.3618 13.363 14.6288C13.8577 15.0531 14.1963 15.6346 14.3288 16.2755C14.3671 16.4713 14.3877 16.6731 14.3877 16.8719C14.3906 17.7056 14.0402 18.5007 13.4278 19.0585ZM14.1757 19.1238C14.4142 18.8301 14.6056 18.5007 14.741 18.1477C14.9943 18.1684 15.2593 18.1833 15.5331 18.1862C15.5272 18.2218 15.5272 18.2545 15.5331 18.2901L15.5449 19.2454C15.0885 19.2395 14.6321 19.2009 14.1757 19.1238ZM14.9619 16.5188C15.1356 16.5307 15.3152 16.5366 15.5007 16.5396C15.5037 16.5603 15.5095 16.5811 15.5154 16.6019L15.5272 17.5899C15.3152 17.5869 15.1062 17.578 14.9089 17.5632C14.953 17.3347 14.9766 17.1003 14.9766 16.8689C14.9766 16.7532 14.9707 16.6375 14.9619 16.5188ZM15.6803 15.9491C15.6715 15.9491 15.6656 15.9491 15.6568 15.9491C15.3712 15.9491 15.1003 15.9373 14.847 15.9165C14.7381 15.5219 14.5585 15.148 14.3229 14.8128C14.7646 14.8692 15.2122 14.8988 15.6568 14.8988C16.5666 14.8988 17.4294 14.789 18.0889 14.5873C18.3186 14.522 18.5365 14.43 18.7455 14.3143V15.1065C18.0094 15.1273 17.3175 15.2222 16.7668 15.3795C16.2486 15.5278 15.8864 15.7177 15.6803 15.9491ZM16.0867 16.3912C16.1367 16.2992 16.3576 16.1182 16.9317 15.958C17.5089 15.7948 18.2597 15.7058 19.0488 15.7058H19.0724C19.9145 15.7058 20.739 15.8037 21.3367 15.9877C21.955 16.1776 22.1052 16.3675 22.114 16.4179V16.4209C22.1111 16.4654 21.9668 16.6701 21.3131 16.8659C20.7095 17.0469 19.9116 17.1448 19.0724 17.1448C18.2921 17.1448 17.5412 17.0558 16.9641 16.8986C16.4106 16.7472 16.1721 16.5722 16.1014 16.4713C16.1014 16.4446 16.0955 16.4179 16.0867 16.3912ZM22.1347 19.7083C22.1347 19.7498 22.0051 19.9545 21.3779 20.1504C20.7772 20.3373 19.9822 20.4411 19.1342 20.4411C18.2833 20.4411 17.4912 20.3402 16.8993 20.1593C16.3369 19.9842 16.1485 19.7884 16.1485 19.7231C16.1485 19.7201 16.1485 19.7201 16.1485 19.7172L16.1456 19.5362L16.1367 18.8657C16.3723 18.9814 16.6167 19.0704 16.8699 19.1327C17.4882 19.2959 18.2685 19.3849 19.0724 19.3849C19.9822 19.3849 20.8361 19.2751 21.4957 19.0734C21.7107 19.0081 21.958 18.9191 22.1347 18.8034V19.7083ZM22.0964 18.0646C22.0964 18.1061 21.9609 18.3079 21.3279 18.5037C20.7242 18.6876 19.9233 18.7885 19.0694 18.7885C17.4676 18.7885 16.3782 18.4295 16.1249 18.1447L16.1132 17.2071C16.8081 17.5721 17.977 17.7382 19.0724 17.7382C19.9675 17.7382 20.8185 17.6314 21.4751 17.4356C21.7048 17.3703 21.9256 17.2813 22.1376 17.1656V17.9073C22.1347 17.9518 22.0964 18.0052 22.0964 18.0646Z" fill="white"/>
<path d="M11.455 14.9107C10.3803 14.9107 9.51162 15.7889 9.51162 16.8689C9.51162 17.9489 10.3832 18.8271 11.455 18.8271C12.5268 18.8271 13.3984 17.9489 13.3984 16.8689C13.3954 15.7889 12.5268 14.9137 11.455 14.9107ZM11.455 18.2367C10.7071 18.2367 10.1005 17.6255 10.1005 16.8719C10.1005 16.1182 10.7071 15.507 11.455 15.507C12.2029 15.507 12.8095 16.1182 12.8095 16.8719C12.8095 17.6255 12.2029 18.2367 11.455 18.2367Z" fill="white"/>
</svg>
