<svg width="31" height="31" viewBox="0 0 31 31" fill="none" xmlns="http://www.w3.org/2000/svg">
<circle cx="15.3268" cy="15.8245" r="15.1101" fill="#C34F46"/>
<path d="M19.2569 18.4107C19.2569 16.2471 17.6849 15.6893 15.6058 15.0131C14.2028 14.5567 13.1717 14.1849 13.1717 13.12C13.1717 12.1395 13.9999 11.5648 15.1832 11.5648C16.0114 11.5648 17.144 11.9198 18.023 12.5621L18.8681 11.531C18.1075 10.9225 16.9749 10.4492 15.9269 10.2802V8.09961H14.8282V10.2125C12.7829 10.3309 11.6334 11.5817 11.6334 13.2045C11.6334 15.216 13.3407 15.8076 15.1832 16.3823C16.7383 16.8894 17.7018 17.2951 17.7018 18.5122C17.7018 19.5602 16.789 20.1856 15.5381 20.1856C14.4563 20.1856 13.2393 19.7123 12.2927 18.7826L11.3968 19.8306C12.3941 20.811 13.5773 21.3351 14.8282 21.4872V23.5494H15.9269V21.5041C18.023 21.3689 19.2569 20.1349 19.2569 18.4107Z" fill="white"/>
</svg>
