<svg width="31" height="31" viewBox="0 0 31 31" fill="none" xmlns="http://www.w3.org/2000/svg">
<circle cx="15.1624" cy="15.7745" r="15.1101" fill="#399E9B"/>
<path d="M18.6109 19.1335C18.0287 19.5664 17.3419 19.8053 16.4612 19.8053C15.0877 19.8053 13.774 19.0588 13.3261 17.2525H17.5659V16.3568H13.1769C13.1619 16.1776 13.1619 15.9985 13.1619 15.8044C13.1619 15.5954 13.1769 15.4013 13.1918 15.2073H17.5659V14.3115H13.3261C13.7591 12.5947 14.9534 11.7289 16.4612 11.7289C17.2076 11.7289 17.8943 11.9528 18.5064 12.3708L19.2379 11.4303C18.387 10.8332 17.4315 10.5645 16.4612 10.5645C14.1024 10.5645 12.4603 11.9528 11.9826 14.3115H11.0122V15.2073H11.8631C11.8482 15.4013 11.8482 15.5954 11.8482 15.8044C11.8482 15.9985 11.8482 16.1776 11.8631 16.3568H11.0122V17.2525H11.9826C12.4901 19.9098 14.4607 20.9846 16.4612 20.9846C17.6256 20.9846 18.5661 20.6114 19.3125 20.0889L18.6109 19.1335Z" fill="white"/>
</svg>
