<svg width="25" height="30" viewBox="0 0 25 30" fill="none" xmlns="http://www.w3.org/2000/svg">
<path fill-rule="evenodd" clip-rule="evenodd" d="M11.6688 6.34568C11.2984 8.95306 11.0023 11.1483 10.4688 14.567C11.9101 14.5357 15.1814 15.1096 15.9014 10.4374C16.4975 6.55046 13.8405 6.19046 11.6688 6.34568Z" fill="black"/>
<path fill-rule="evenodd" clip-rule="evenodd" d="M11.6688 6.34568C11.2984 8.95306 11.0023 11.1483 10.4688 14.567C11.9101 14.5357 15.1814 15.1096 15.9014 10.4374C16.4975 6.55046 13.8405 6.19046 11.6688 6.34568Z" fill="url(#paint0_linear)"/>
<path fill-rule="evenodd" clip-rule="evenodd" d="M24.1514 25.1426C24.7123 26.3909 24.1475 27.9691 22.9775 28.6043C22.3058 28.9696 21.5388 29.3087 20.7732 29.4991C19.5091 29.8011 18.2168 29.969 16.9175 30C14.8397 30 12.7566 28.8104 11.8593 27.3626C11.6271 27.8622 10.7897 28.8665 9.3223 29.3387C8.39491 29.6387 7.27709 30 4.94361 29.9974C2.85275 29.9961 1.66058 29.0478 1.03058 28.2522C0.0262296 26.987 -0.121162 25.38 0.0744903 24.2974L0.0849251 24.2452C0.874054 20.2865 1.95275 13.0892 2.4497 9.48264L2.45492 9.44742C2.59057 8.44699 2.72883 7.44655 2.81101 6.4396C2.85144 5.93221 2.87883 5.42221 2.88405 4.91351C2.88927 4.43221 2.84492 3.95221 2.84883 3.47091C2.85405 3.01699 2.9271 2.55786 3.1397 2.15613C3.48536 1.50787 4.11796 0.996562 4.78709 0.773519C5.52144 0.528302 6.28839 0.430476 7.05144 0.34178C7.83158 0.248295 8.61346 0.170019 9.39665 0.106998C10.3516 0.0368215 11.3087 0.00114611 12.2662 4.166e-05C13.9045 -0.00126269 15.5532 0.0261286 17.1679 0.358737C18.8127 0.697867 20.4745 1.34613 21.7723 2.48221C22.6618 3.26091 23.3675 4.24308 23.8984 5.31786C24.3627 6.26482 24.5518 7.26134 24.664 8.02307C24.8636 9.39019 24.811 10.7823 24.5088 12.1305C24.2701 13.1134 23.8675 14.0491 23.3179 14.8983C22.6997 15.8583 21.9066 16.7296 20.8958 17.5591C21.5114 19.3461 23.1158 22.8365 24.1514 25.1426ZM5.75231 3.65221C5.79144 4.31482 5.79666 4.98264 5.76796 5.64786C5.73926 6.32742 5.68057 7.00438 5.60492 7.68003C5.53057 8.35307 5.44057 9.02351 5.34927 9.69394L5.31927 9.91307C5.03231 12.0092 4.7297 14.1026 4.41274 16.1922C4.07883 18.3887 3.70449 20.5735 3.33014 22.7609C3.15666 23.7809 2.76666 25.0878 3.30014 26.0609C3.77492 26.9296 4.99318 27.0352 5.84231 26.9478C8.93491 26.6322 9.42665 25.9448 9.42665 25.9448C8.8097 25.2613 9.34578 22.1465 9.96665 17.9596H12.1645L14.4653 24.9183C14.4653 24.9183 15.1436 27.0744 17.0284 26.97C19.4427 26.837 21.2192 26.2852 21.4749 25.9787C20.7314 25.5639 18.6053 20.2474 17.4471 16.3435C18.0079 16.0018 18.5519 15.63 19.0645 15.2139C19.7649 14.6426 20.4145 13.9839 20.9114 13.2105C21.2688 12.6548 21.5414 12.0431 21.6979 11.3935C21.7801 11.0505 21.8258 10.6918 21.8545 10.3409C21.9066 9.72264 21.8871 9.09655 21.7971 8.48351C21.711 7.89394 21.5819 7.23786 21.3184 6.70568C20.8292 5.71047 20.1366 4.84177 19.1923 4.28612C17.5984 3.3496 15.7619 3.17091 13.971 3.07308C12.0287 2.96508 10.0807 3.02881 8.1497 3.26352C7.93317 3.2896 5.74318 3.48265 5.75231 3.65221Z" fill="black"/>
<path fill-rule="evenodd" clip-rule="evenodd" d="M24.1514 25.1426C24.7123 26.3909 24.1475 27.9691 22.9775 28.6043C22.3058 28.9696 21.5388 29.3087 20.7732 29.4991C19.5091 29.8011 18.2168 29.969 16.9175 30C14.8397 30 12.7566 28.8104 11.8593 27.3626C11.6271 27.8622 10.7897 28.8665 9.3223 29.3387C8.39491 29.6387 7.27709 30 4.94361 29.9974C2.85275 29.9961 1.66058 29.0478 1.03058 28.2522C0.0262296 26.987 -0.121162 25.38 0.0744903 24.2974L0.0849251 24.2452C0.874054 20.2865 1.95275 13.0892 2.4497 9.48264L2.45492 9.44742C2.59057 8.44699 2.72883 7.44655 2.81101 6.4396C2.85144 5.93221 2.87883 5.42221 2.88405 4.91351C2.88927 4.43221 2.84492 3.95221 2.84883 3.47091C2.85405 3.01699 2.9271 2.55786 3.1397 2.15613C3.48536 1.50787 4.11796 0.996562 4.78709 0.773519C5.52144 0.528302 6.28839 0.430476 7.05144 0.34178C7.83158 0.248295 8.61346 0.170019 9.39665 0.106998C10.3516 0.0368215 11.3087 0.00114611 12.2662 4.166e-05C13.9045 -0.00126269 15.5532 0.0261286 17.1679 0.358737C18.8127 0.697867 20.4745 1.34613 21.7723 2.48221C22.6618 3.26091 23.3675 4.24308 23.8984 5.31786C24.3627 6.26482 24.5518 7.26134 24.664 8.02307C24.8636 9.39019 24.811 10.7823 24.5088 12.1305C24.2701 13.1134 23.8675 14.0491 23.3179 14.8983C22.6997 15.8583 21.9066 16.7296 20.8958 17.5591C21.5114 19.3461 23.1158 22.8365 24.1514 25.1426ZM5.75231 3.65221C5.79144 4.31482 5.79666 4.98264 5.76796 5.64786C5.73926 6.32742 5.68057 7.00438 5.60492 7.68003C5.53057 8.35307 5.44057 9.02351 5.34927 9.69394L5.31927 9.91307C5.03231 12.0092 4.7297 14.1026 4.41274 16.1922C4.07883 18.3887 3.70449 20.5735 3.33014 22.7609C3.15666 23.7809 2.76666 25.0878 3.30014 26.0609C3.77492 26.9296 4.99318 27.0352 5.84231 26.9478C8.93491 26.6322 9.42665 25.9448 9.42665 25.9448C8.8097 25.2613 9.34578 22.1465 9.96665 17.9596H12.1645L14.4653 24.9183C14.4653 24.9183 15.1436 27.0744 17.0284 26.97C19.4427 26.837 21.2192 26.2852 21.4749 25.9787C20.7314 25.5639 18.6053 20.2474 17.4471 16.3435C18.0079 16.0018 18.5519 15.63 19.0645 15.2139C19.7649 14.6426 20.4145 13.9839 20.9114 13.2105C21.2688 12.6548 21.5414 12.0431 21.6979 11.3935C21.7801 11.0505 21.8258 10.6918 21.8545 10.3409C21.9066 9.72264 21.8871 9.09655 21.7971 8.48351C21.711 7.89394 21.5819 7.23786 21.3184 6.70568C20.8292 5.71047 20.1366 4.84177 19.1923 4.28612C17.5984 3.3496 15.7619 3.17091 13.971 3.07308C12.0287 2.96508 10.0807 3.02881 8.1497 3.26352C7.93317 3.2896 5.74318 3.48265 5.75231 3.65221Z" fill="url(#paint1_linear)"/>
<defs>
<linearGradient id="paint0_linear" x1="13.2276" y1="6.31714" x2="13.2276" y2="14.5748" gradientUnits="userSpaceOnUse">
<stop offset="0.0520833" stop-color="#3098E3"/>
<stop offset="0.916667" stop-color="#0E66E2"/>
</linearGradient>
<linearGradient id="paint1_linear" x1="12.3913" y1="0" x2="12.3913" y2="30" gradientUnits="userSpaceOnUse">
<stop offset="0.0520833" stop-color="#3098E3"/>
<stop offset="0.916667" stop-color="#0E66E2"/>
</linearGradient>
</defs>
</svg>
