<svg width="16" height="15" viewBox="0 0 16 15" fill="none" xmlns="http://www.w3.org/2000/svg">
<path fill-rule="evenodd" clip-rule="evenodd" d="M8.32698 14.1577C8.32698 14.2957 8.21505 14.4077 8.07698 14.4077C7.93891 14.4077 7.82698 14.2957 7.82698 14.1577V7.80411H0.25C0.111929 7.80411 0 7.69218 0 7.55411C0 7.41604 0.111929 7.30411 0.25 7.30411H7.82698V0.97184C7.82698 0.833769 7.93891 0.72184 8.07698 0.72184C8.21505 0.72184 8.32698 0.833769 8.32698 0.97184V7.30411H15.4038C15.5419 7.30411 15.6538 7.41604 15.6538 7.55411C15.6538 7.69218 15.5419 7.80411 15.4038 7.80411H8.32698V14.1577Z" fill="white"/>
</svg>
