<svg width="31" height="31" viewBox="0 0 31 31" fill="none" xmlns="http://www.w3.org/2000/svg">
<circle cx="15.3268" cy="15.8245" r="15.1101" fill="#7965ED"/>
<path d="M16.0546 10.6144C16.5831 10.6144 17.0587 10.6721 17.4814 10.7874C17.9042 10.9027 18.2789 11.042 18.6056 11.2054L18.1588 12.2142C17.8706 12.0797 17.5487 11.9548 17.1932 11.8395C16.8473 11.7242 16.4774 11.6665 16.0834 11.6665C15.5358 11.6665 15.1178 11.8107 14.8295 12.0989C14.5413 12.3776 14.3972 12.834 14.3972 13.4681V15.4714H17.3373V16.4226H14.3972V17.9215C14.3972 18.5076 14.2963 18.9448 14.0945 19.2331C13.8927 19.5117 13.6669 19.7279 13.4171 19.8816H18.9515V21.0346H11.7021V19.9681C12.1152 19.8624 12.4563 19.6558 12.7253 19.3484C12.9944 19.0409 13.1289 18.5701 13.1289 17.936V16.4226H11.7453V15.4714H13.1289V13.3384C13.1289 12.4833 13.3931 11.8155 13.9216 11.3351C14.4596 10.8546 15.1706 10.6144 16.0546 10.6144Z" fill="white"/>
</svg>
