<svg width="17" height="14" viewBox="0 0 17 14" fill="none" xmlns="http://www.w3.org/2000/svg">
<path d="M2.1431 7.96692C2.22457 7.93432 2.31906 7.93432 2.40053 7.97343L4.94545 9.13021C5.10837 9.20842 5.1768 9.40393 5.09859 9.56685C5.02366 9.72326 4.83792 9.79495 4.67824 9.72326L2.89582 8.91188C3.74629 11.4568 6.11525 13.1578 8.84264 13.1578C11.7004 13.1578 14.1997 11.2482 14.9198 8.51435C14.9654 8.34166 15.1446 8.23737 15.3173 8.28301C15.49 8.32862 15.5943 8.50784 15.5487 8.68054C14.7536 11.6979 11.9969 13.8094 8.84261 13.8094C5.835 13.8094 3.21838 11.9325 2.27342 9.12368L1.52397 10.9973C1.46858 11.1668 1.28285 11.2613 1.11339 11.2059C0.943939 11.1505 0.849451 10.9648 0.904836 10.7953C0.908105 10.7823 0.914612 10.7692 0.921119 10.7562L1.9606 8.14939C1.99319 8.06791 2.05835 7.99948 2.1431 7.96692Z" fill="#121212"/>
<path d="M16.523 3.15728C16.5197 3.16379 16.5164 3.17032 16.5164 3.17683L15.477 5.78364C15.4444 5.86512 15.3792 5.93354 15.2945 5.96611C15.213 5.9987 15.1185 5.99544 15.0371 5.9596L12.4921 4.80282C12.326 4.73439 12.2478 4.54214 12.3162 4.37596C12.3846 4.20977 12.5769 4.13157 12.743 4.2C12.7495 4.20327 12.7561 4.2065 12.7626 4.20977L14.545 5.02115C13.688 2.47623 11.3158 0.775275 8.59168 0.775275C5.73395 0.775275 3.23467 2.68478 2.51454 5.41868C2.46893 5.59137 2.2897 5.69566 2.11701 5.65002C1.94432 5.60441 1.84003 5.42518 1.88567 5.25249C2.67749 2.23184 5.43747 0.12358 8.59172 0.12358C11.5993 0.12358 14.2127 2.00049 15.1609 4.80935L15.9104 2.93571C15.9723 2.76626 16.158 2.67828 16.3274 2.7402C16.4969 2.80209 16.5848 2.98783 16.523 3.15728Z" fill="#121212"/>
</svg>
