<svg width="16" height="15" viewBox="0 0 16 15" fill="none" xmlns="http://www.w3.org/2000/svg">
<path d="M1.60031 8.56512C1.68178 8.53253 1.77627 8.53253 1.85775 8.57163L4.40267 9.72842C4.56558 9.80662 4.63401 10.0021 4.55581 10.1651C4.48087 10.3215 4.29513 10.3932 4.13546 10.3215L2.35303 9.51009C3.20351 12.055 5.57247 13.756 8.29985 13.756C11.1576 13.756 13.6569 11.8465 14.377 9.11256C14.4226 8.93987 14.6018 8.83557 14.7745 8.88121C14.9472 8.92682 15.0515 9.10605 15.0059 9.27874C14.2108 12.2961 11.4541 14.4077 8.29982 14.4077C5.29221 14.4077 2.67559 12.5307 1.73063 9.72188L0.981181 11.5955C0.925796 11.765 0.74006 11.8595 0.570606 11.8041C0.401153 11.7487 0.306666 11.563 0.362051 11.3935C0.365319 11.3805 0.371826 11.3674 0.378333 11.3544L1.41781 8.74759C1.45041 8.66612 1.51557 8.59769 1.60031 8.56512Z" fill="white"/>
<path d="M15.9802 3.75548C15.9769 3.76199 15.9737 3.76853 15.9737 3.77504L14.9342 6.38185C14.9016 6.46332 14.8364 6.53175 14.7517 6.56431C14.6702 6.59691 14.5757 6.59364 14.4943 6.55781L11.9494 5.40102C11.7832 5.33259 11.705 5.14035 11.7734 4.97416C11.8418 4.80798 12.0341 4.72977 12.2003 4.7982C12.2068 4.80147 12.2133 4.80471 12.2198 4.80798L14.0022 5.61935C13.1452 3.07443 10.773 1.37348 8.0489 1.37348C5.19116 1.37348 2.69188 3.28299 1.97176 6.01688C1.92615 6.18957 1.74692 6.29387 1.57423 6.24823C1.40153 6.20262 1.29724 6.02339 1.34288 5.8507C2.1347 2.83004 4.89469 0.721785 8.04893 0.721785C11.0565 0.721785 13.6699 2.5987 14.6181 5.40756L15.3676 3.53391C15.4295 3.36446 15.6152 3.27648 15.7847 3.3384C15.9541 3.40029 16.0421 3.58603 15.9802 3.75548Z" fill="white"/>
</svg>
